<?xml version="1.0" encoding="UTF-8" standalone="no"?>
<svg width="216px" height="216px" viewBox="0 0 216 216" version="1.1" xmlns="http://www.w3.org/2000/svg" xmlns:xlink="http://www.w3.org/1999/xlink" xmlns:sketch="http://www.bohemiancoding.com/sketch/ns">
    <!-- Generator: Sketch 3.0.3 (7891) - http://www.bohemiancoding.com/sketch -->
    <title>houston-useRs</title>
    <desc>Created with Sketch.</desc>
    <defs></defs>
    <g id="Page-1" stroke="none" stroke-width="1" fill="none" fill-rule="evenodd" sketch:type="MSPage">
        <g id="houston-useRs" sketch:type="MSArtboardGroup">
            <path d="M106.045935,131.427629 L123,207 L102.442105,207 L98.2689438,182.927114 L98.2689438,182.927114 L68.0736842,146.941805 L38.0907014,182.674133 L38.0907014,182.674133 L33.8736842,207 L13.3157895,207 L33.9735768,114.918367 L31,114.918367 L31,97.2857143 L37.9293233,97.2857143 L48.4779807,50.2653061 L46.6210526,50.2653061 L46.6210526,36.5510204 L51.5546724,36.5510204 L53.4925256,27.9130825 L64.8405497,50.2653061 L61.0444683,50.2653061 L60.4357367,53.7767749 L60.4357367,53.7767749 L68.0322105,66.9342534 L70.8369163,62.0763604 L76.1260183,72.4943143 L73.6841658,76.7237271 L82.5072472,92.0057524 L80.6797434,81.4637948 L106.045935,131.427629 L106.045935,131.427629 Z M82.1652887,114.918367 L53.9820797,114.918367 L68.0736842,131.712088 L82.1652887,114.918367 L82.1652887,114.918367 L82.1652887,114.918367 Z M87.9287159,123.2795 L94.9413148,163.731683 L74.4633094,139.326946 L87.9287159,123.2795 L87.9287159,123.2795 L87.9287159,123.2795 Z M41.4183304,163.478701 L48.3582361,123.445849 L61.6840591,139.326946 L41.4183304,163.478701 L41.4183304,163.478701 L41.4183304,163.478701 Z M53.9164051,91.3835455 L57.8254024,68.8344906 L57.8254024,68.8344906 L62.3802552,76.7237271 L53.9164051,91.3835455 L53.9164051,91.3835455 L53.9164051,91.3835455 Z M61.8126969,97.2857143 L74.2517241,97.2857143 L68.0322105,86.5132008 L61.8126969,97.2857143 L61.8126969,97.2857143 L61.8126969,97.2857143 Z" id="rig" fill="#9B9B9B" sketch:type="MSShapeGroup"></path>
            <path d="M122.727001,11 C145.996649,11 164.189826,16.165964 177.307079,26.4980469 C190.424332,36.8301298 196.982861,51.4295932 196.982861,70.296875 C196.982861,83.9531933 194.220193,95.2733926 188.694775,104.257812 C183.169356,113.242232 174.521982,120.519503 162.752392,126.089844 L203.721142,205.197266 L203.721142,207.21875 L153.618505,207.21875 L99.9093522,101.427734 L122.727001,101.427734 C131.711421,101.427734 138.472096,99.0693595 143.009228,94.3525391 C147.54636,89.6357186 149.814892,83.0547297 149.814892,74.609375 C149.814892,66.1640203 147.523899,59.53811 142.941845,54.7314453 C138.359791,49.9247807 131.621577,47.5214844 122.727001,47.5214844 L92.8090325,47.5214844 L92.8090325,87.4422219 L54,11 L122.727001,11 Z" id="R" fill="#336697" sketch:type="MSShapeGroup"></path>
        </g>
    </g>
</svg>