<?xml version="1.0" encoding="UTF-8" standalone="no"?>
<svg width="216px" height="216px" viewBox="0 0 216 216" version="1.1" xmlns="http://www.w3.org/2000/svg" xmlns:xlink="http://www.w3.org/1999/xlink" xmlns:sketch="http://www.bohemiancoding.com/sketch/ns">
    <!-- Generator: Sketch 3.0.3 (7891) - http://www.bohemiancoding.com/sketch -->
    <title>houston-useRs</title>
    <desc>Created with Sketch.</desc>
    <defs></defs>
    <g id="Page-1" stroke="none" stroke-width="1" fill="none" fill-rule="evenodd" sketch:type="MSPage">
        <g id="houston-useRs" sketch:type="MSArtboardGroup">
            <path d="M61.3959271,122.807608 C59.2767437,123.550991 57.239403,124.509534 55.8886719,125.857422 C51.25,130.486328 52.4916581,134.560394 55.171875,137.886719 C60.5273438,144.533207 68.9653282,144.6981 69.3261719,146.873047 C69.3639817,147.100942 69.1716246,147.29261 68.8024796,147.464682 L68.8024796,147.464682 C68.8158575,150.215964 68.8804793,153.57433 68.9322175,155.903147 C70.0622656,155.470799 71.1804998,154.89922 72.2122364,154.099609 C77.4238281,150.060546 77.4238281,147.580384 77.4238281,144.533203 C77.4238281,141.486022 70.4648438,138.019532 65.6171875,135.650391 C62.4348987,134.095146 60.5273438,133.786132 60.5273438,131.970702 C60.7369128,131.864615 60.9471734,131.762661 61.1578842,131.66462 L61.3959271,122.807608 L61.3959271,122.807608 Z M70.0648343,119.916196 C70.4059088,119.566002 70.3111343,119.174732 69.6035156,118.691406 C65.9433594,116.191407 57.5703125,110.490235 54.1875,106.59375 C50.8046875,102.697265 47.5957031,97.1406243 47.5957031,90.8984375 C47.5957031,88.0312508 48.7998047,80.8339841 56.109375,76.6816406 C57.6507121,76.4122622 60.5273438,75.6816407 64.8671875,76.1621094 C69.2070312,76.6425781 80.3261719,81.5781251 80.3261719,84.3769532 C80.3261719,86.4184389 77.7210707,87.2572941 72.212236,87.1835842 C70.16859,87.1562396 68.7253227,87.8656815 65.8671875,87.2246094 C55.3046875,84.8554686 62.5097656,85.3769531 59.5273438,85.3769531 C56.5449219,85.3769532 54.2933826,91.4430459 56.8046875,95.8984376 C60.5273438,102.502929 62.5343639,102.896517 69.6113281,107.999999 C76.4296875,112.916991 80.4238281,116.975585 80.4238281,120.698241 C79.4238281,124.411132 79.4238281,125.857421 73.9023438,128.267578 C73.0145959,128.655085 71.5736093,128.892489 69.825727,129.204745 C69.9060825,127.450438 70.1398677,121.782213 70.0648343,119.916196 L70.0648343,119.916196 Z M60.8233042,149.238081 C57.888035,149.963997 55.0293076,151.050037 53.8046875,152.981445 C48.9677734,158.310691 51.9355469,162.407225 54.171875,165.24707 C56.2009676,167.823752 66.604577,174.149284 67.4568703,177.965664 L67.4568703,177.965664 C67.4712449,177.970222 67.4856215,177.974842 67.5,177.979525 C67.5,178.063376 67.5002177,178.146223 67.5006395,178.228046 C67.5148898,178.360431 67.5163516,178.489411 67.5042015,178.614698 C67.5351305,180.941019 67.7263661,182.34233 67.7263661,182.34233 C67.7263661,182.34233 67.9159581,183.813192 68.0991261,185.234216 C68.6338755,184.977124 69.1427373,184.704599 69.6113281,184.410156 C73.9023438,181.713866 75.1120434,178.355226 73.9023438,174.594726 C72.2122364,169.34082 60.5273438,162.958007 59.5820312,160.207031 C59.4009082,159.679941 59.9715573,158.739155 60.6347982,158.31069 C60.6560209,158.29698 60.6775238,158.283431 60.6993032,158.27004 C60.7148075,157.397524 60.7300721,156.483844 60.7446677,155.541322 C60.7782127,153.375123 60.8051778,151.252418 60.8233042,149.238081 L60.8233042,149.238081 Z M60.7266876,180.570897 C59.0734325,180.844694 57.5598693,181.18546 56.8046875,181.713866 C50.8046875,185.912109 49.8466797,191.964843 52.3535156,196.884765 C54.2302947,200.568136 66.6464844,204.100586 69.6113281,204.100593 C72.5761719,204.1006 77.4238281,202.961913 77.4238281,202.961913 C77.4238281,202.961913 69.6113281,201.812499 64.9921875,199.480469 C60.3730469,197.148438 57.6523438,192.964845 57.6523438,191.964844 C57.6523438,190.3139 58.9585891,189.198131 60.7945122,188.267429 C60.7838808,186.887978 60.7667573,184.706981 60.7551965,183.438667 C60.7477748,182.624438 60.7358369,181.452314 60.7266876,180.570897 L60.7266876,180.570897 Z M69,83 C69.5522847,83 70,82.5522847 70,82 C70,81.4477153 69.5522847,81 69,81 C68.4477153,81 68,81.4477153 68,82 C68,82.5522847 68.4477153,83 69,83 Z" id="serpent" fill="#9B9B9B" sketch:type="MSShapeGroup"></path>
            <path d="M61.56235,192.289319 C61.5425136,189.137458 61.5191199,185.985582 61.4923048,183.043727 C61.4428998,177.623568 61,171.778847 61,171.778847 C65.1783309,174.635659 66.7041506,177.477751 66.7230326,177.627902 L68.9014087,200.214181 C68.9014087,200.214181 64.7230783,198.854409 61.3193703,196.05194 C61.3193703,196.05194 61.5692926,193.392458 61.56235,192.289319 Z M61.4000244,161.600006 C61.4000244,161.600006 61.4772385,157.026648 61.5,155.556806 C61.5376516,153.125422 61.5820705,150.748633 61.5999756,148.517712 C61.6125079,146.956217 61.2999878,145.133222 61.2999878,143.799988 C61.0513471,143.866567 64.8637905,144.880066 68.2000122,146.799988 L68.3275568,167 L61.4000244,161.600006 Z M61.8721571,114.300243 C61.9334138,114.337182 64.9587444,116.21514 65.8225399,116.777693 C65.997766,116.89181 66.1689052,117.004016 66.335627,117.114127 C68.1924763,118.340469 69.2773206,119.297026 69.4000244,119.55152 C69.5374359,119.83652 69.5574654,121.721166 69.4000244,124.339665 C69.3628433,124.958047 69.2493224,125.608471 69.2000122,126.27969 C69.1433218,127.051371 69.0607473,127.81021 69,128.523604 C68.9635675,128.951453 69.0161337,129.268848 69,129.443242 L69.5,136.967122 L61.8501501,133.117856 L61.8721571,114.300243 Z M91.0711274,100.944555 C90.6733672,100.984736 80.38295,102.036288 74.5263675,103.867187 C72.4012186,104.531556 72.3634066,109.399994 72.3634066,109.399994 L62.4941505,102 L62.9315665,87.0361913 C63.7064045,87.2379077 64.6447084,87.4628336 65.7577577,87.7124876 C67.3664604,88.0733153 68.379039,88.0666013 70.2456122,87.8344085 C70.399871,87.8151988 70.399871,87.8151988 70.5525532,87.7964891 C71.2522499,87.7115399 71.7063139,87.6768596 72.2055465,87.6835395 C72.254819,87.6841987 74.3038734,87.6847854 74.3527099,87.6852991 C74.4144068,93.6340853 73.2055467,92.4384764 73.2055467,100.94336 C77.8369144,99.6971753 89.2615259,99.2668552 90.0682661,99.6971757 C90.3127911,99.827607 90.4985932,99.9630076 90.6397317,100.094407 L91.0711274,100.944555 Z M76.2448841,71.7265971 C76.1970714,72.2803951 76.1497977,72.8300337 76.1031281,73.3748705 C75.98853,74.7127295 75.9322977,76.5965401 75.9121365,79.5 C75.0672593,79.1033179 73.7788213,78.4211226 72.3717746,77.7999878 C69.6333899,76.5911396 66.4457546,75.9318682 65.2042624,75.7852567 C64.6127218,75.7153999 64.0450329,75.6683006 63.4941505,75.6423161 L63.4941505,46.5988291 L76.2448841,71.7265971 Z M61.3671875,203.441406 L63.1015625,207.931641 L67.2304688,207.931641 L68.4687787,204.529274 C66.5663138,204.315988 63.9584728,203.640184 61.3662457,202.717255 L61.3671875,203.441406 Z" id="staff" fill="#9B9B9B" sketch:type="MSShapeGroup"></path>
            <path d="M122.727001,11 C145.996649,11 164.189826,16.165964 177.307079,26.4980469 C190.424332,36.8301298 196.982861,51.4295932 196.982861,70.296875 C196.982861,83.9531933 194.220193,95.2733926 188.694775,104.257812 C183.169356,113.242232 174.521982,120.519503 162.752392,126.089844 L203.721142,205.197266 L203.721142,207.21875 L153.618505,207.21875 L99.9093522,101.427734 L122.727001,101.427734 C131.711421,101.427734 138.472096,99.0693595 143.009228,94.3525391 C147.54636,89.6357186 149.814892,83.0547297 149.814892,74.609375 C149.814892,66.1640203 147.523899,59.53811 142.941845,54.7314453 C138.359791,49.9247807 131.621577,47.5214844 122.727001,47.5214844 L92.8090325,47.5214844 L92.8090325,87.4422219 L54,11 L122.727001,11 Z" id="R" fill="#336697" sketch:type="MSShapeGroup"></path>
        </g>
    </g>
</svg>